<svg width="100" height="40" viewBox="0 0 100 40" fill="none" xmlns="http://www.w3.org/2000/svg">
<rect x="60" width="40" height="40" rx="8.57143" fill="#444444"/>
<path d="M86.7831 16.0534C83.8588 14.4198 79.1653 11.7965 71.8853 7.72511C71.3944 7.40135 70.8297 7.35892 70.3418 7.52387L82.8323 19.9996L86.7831 16.0534Z" fill="#32BBFF"/>
<path d="M70.3438 7.52393C70.2524 7.55486 70.1634 7.59218 70.0783 7.63727C69.5395 7.92837 69.1436 8.48854 69.1436 9.19701V30.8022C69.1436 31.5107 69.5394 32.0709 70.0783 32.3619C70.1633 32.407 70.2522 32.4444 70.3435 32.4756L82.8344 19.9996L70.3438 7.52393Z" fill="#32BBFF"/>
<path d="M82.8355 19.9995L70.3447 32.4754C70.8328 32.6416 71.3975 32.6024 71.8885 32.2739C78.9486 28.3252 83.5892 25.7331 86.5473 24.0855C86.6296 24.0393 86.7103 23.9941 86.7901 23.9494L82.8355 19.9995Z" fill="#32BBFF"/>
<path d="M69.1436 19.9995V30.8021C69.1436 31.5106 69.5394 32.0707 70.0783 32.3618C70.1632 32.4068 70.2522 32.4443 70.3435 32.4754L82.8343 19.9995H69.1436Z" fill="#2C9FD9"/>
<path d="M71.8852 7.72472C71.3023 7.34031 70.615 7.35126 70.0762 7.63687L82.6426 20.1885L86.783 16.0531C83.8588 14.4194 79.1652 11.7962 71.8852 7.72472Z" fill="#29CC5E"/>
<path d="M82.6427 19.8096L70.0762 32.3611C70.615 32.6467 71.3023 32.6632 71.8852 32.2733C78.9452 28.3246 83.5859 25.7324 86.544 24.0848C86.6263 24.0386 86.707 23.9935 86.7868 23.9487L82.6427 19.8096Z" fill="#D93F21"/>
<path d="M92.0014 19.9989C92.0014 19.4003 91.699 18.7962 91.0996 18.4612C91.0996 18.4612 89.9787 17.8365 86.5428 15.917L82.4561 19.9989L86.5468 24.0849C89.9449 22.1792 91.0996 21.5366 91.0996 21.5366C91.699 21.2017 92.0014 20.5975 92.0014 19.9989Z" fill="#FFD500"/>
<path d="M91.0996 21.5373C91.699 21.2022 92.0014 20.5981 92.0014 19.9995H82.4561L86.5468 24.0855C89.945 22.1798 91.0996 21.5373 91.0996 21.5373Z" fill="#FFAA00"/>
<rect width="40" height="40" rx="8.57143" fill="#444444"/>
<path d="M10.3129 16.9817C8.11953 20.5272 9.51392 25.9077 11.9395 29.1701C13.1502 30.8011 14.376 32.2652 16.0549 32.2652C16.0866 32.2652 16.1183 32.2646 16.1508 32.2634C16.9396 32.2341 17.5096 32.0079 18.0608 31.7893C18.6796 31.5436 19.3195 31.2897 20.3233 31.2897C21.2781 31.2897 21.8875 31.5354 22.477 31.7729C23.0578 32.007 23.6561 32.2492 24.54 32.2337C26.4313 32.2009 27.5924 30.6211 28.6169 29.2274C29.6858 27.7722 30.2221 26.3593 30.4031 25.8194L30.4104 25.7979C30.4447 25.7019 30.3961 25.5972 30.2974 25.5549C30.2946 25.5537 30.2846 25.5499 30.2817 25.5487C29.9488 25.4219 27.0275 24.2147 26.9968 20.9244C26.9682 18.2513 29.1882 16.8357 29.6335 16.5791L29.6543 16.567C29.7025 16.5381 29.7362 16.4922 29.7475 16.4398C29.759 16.3874 29.747 16.3329 29.7148 16.2888C28.1824 14.1999 25.8337 13.8851 24.8881 13.8473C24.7509 13.8345 24.6092 13.8281 24.467 13.8281C23.3565 13.8281 22.2925 14.2189 21.4377 14.5328C20.8477 14.7495 20.3381 14.9367 19.9866 14.9367C19.5916 14.9367 19.0791 14.7472 18.4856 14.5279C17.692 14.2345 16.7924 13.902 15.8401 13.902C15.8174 13.902 15.795 13.9022 15.773 13.9026C13.5587 13.9329 11.4664 15.1129 10.3129 16.9817Z" fill="#D6D5D8"/>
<path d="M24.6461 7.37516C23.3209 7.43097 21.7316 8.27418 20.7814 9.42463C19.974 10.3916 19.1852 12.0038 19.3931 13.6289C19.4061 13.7306 19.4861 13.8091 19.5851 13.817C19.6744 13.8242 19.7659 13.8279 19.8567 13.828C21.1524 13.828 22.5501 13.0869 23.5045 11.8937C24.5091 10.6338 25.0171 9.0169 24.8635 7.56857C24.8515 7.45504 24.7548 7.37076 24.6461 7.37516Z" fill="#D6D5D8"/>
</svg>
