<svg width="40" height="40" viewBox="0 0 40 40" fill="none" xmlns="http://www.w3.org/2000/svg">
<rect width="40" height="40" fill="#1E1E1E"/>
<rect x="-71" y="-315" width="500" height="800" rx="20" fill="white"/>
<rect x="-26" y="-13" width="410" height="66" rx="10" fill="#CCCCCC"/>
<rect x="-22" y="-9" width="201" height="58" rx="10" fill="white"/>
<g clip-path="url(#clip0_0_1)">
<path d="M20 40C31.0457 40 40 31.0457 40 20C40 8.9543 31.0457 0 20 0C8.9543 0 0 8.9543 0 20C0 31.0457 8.9543 40 20 40Z" fill="url(#paint0_linear_0_1)"/>
<path fill-rule="evenodd" clip-rule="evenodd" d="M9.0537 19.7889C14.8841 17.2487 18.772 15.574 20.7172 14.7649C26.2714 12.4548 27.4256 12.0535 28.1778 12.0402C28.3432 12.0373 28.7132 12.0783 28.9528 12.2728C29.3082 12.5612 29.3103 13.1873 29.2708 13.6017C28.9698 16.7642 27.6675 24.4386 27.0049 27.9806C26.7245 29.4794 26.1725 29.982 25.6381 30.0311C24.4767 30.138 23.5947 29.2635 22.4698 28.5262C20.7096 27.3723 19.7151 26.654 18.0064 25.5281C16.0318 24.2268 17.3119 23.5117 18.4372 22.3428C18.7318 22.037 23.849 17.3824 23.9481 16.9601C23.9605 16.9073 23.972 16.7104 23.855 16.6065C23.7381 16.5026 23.5655 16.5381 23.441 16.5663C23.2644 16.6064 20.4524 18.4651 15.0049 22.1423C14.2067 22.6904 13.4837 22.9574 12.836 22.9435C12.1218 22.9281 10.7482 22.5397 9.72706 22.2078C8.47456 21.8006 7.47909 21.5853 7.56581 20.8939C7.61097 20.5337 8.10691 20.1654 9.0537 19.7889Z" fill="white"/>
</g>
<defs>
<linearGradient id="paint0_linear_0_1" x1="20" y1="0" x2="20" y2="39.6875" gradientUnits="userSpaceOnUse">
<stop stop-color="#2AABEE"/>
<stop offset="1" stop-color="#229ED9"/>
</linearGradient>
<clipPath id="clip0_0_1">
<rect width="40" height="40" fill="white"/>
</clipPath>
</defs>
</svg>
