<svg width="230" height="67" viewBox="0 0 230 67" fill="none" xmlns="http://www.w3.org/2000/svg">
<g id="Group 1171276775 1" clip-path="url(#clip0_650_125)">
<path id="Vector" d="M217.422 -0.000976562H12.5781C5.63142 -0.000976562 0 5.63044 0 12.5771V54.1209C0 61.0676 5.63142 66.699 12.5781 66.699H217.422C224.369 66.699 230 61.0676 230 54.1209V12.5771C230 5.63044 224.369 -0.000976562 217.422 -0.000976562Z" fill="black"/>
<path id="Vector_2" d="M70.6393 32.3853C71.7734 32.3853 72.7681 31.4043 72.7681 30.2658V12.6055C72.7681 11.4693 71.816 10.6737 70.6942 10.8366L49.8896 13.8901C48.7677 14.0558 47.9277 15.1221 47.9277 16.2568V30.2658C47.9277 31.4043 48.6706 32.3853 49.8018 32.3853H70.6393Z" fill="white"/>
<path id="Vector_3" d="M46.3764 16.5169C46.3764 15.3776 45.2635 14.5806 44.1415 14.7464L29.9385 16.7984C28.8196 16.9641 27.7461 18.0304 27.7461 19.1674V30.2658C27.7461 31.4043 28.7893 32.3854 29.9234 32.3854H43.9233C45.0574 32.3854 46.3766 31.4043 46.3766 30.2658L46.3764 16.5169Z" fill="white"/>
<path id="Vector_4" d="M29.9234 33.9424C28.7893 33.9424 27.7461 35.0299 27.7461 36.1691V47.457C27.7461 48.5955 28.7224 49.6632 29.8415 49.8291L44.1113 51.9115C45.2332 52.0758 46.3764 51.2801 46.3764 50.1409V36.1691C46.3764 35.0299 45.0574 33.9424 43.9231 33.9424H29.9234Z" fill="white"/>
<path id="Vector_5" d="M47.9277 50.4023C47.9277 51.5388 48.7525 52.6049 49.8745 52.7706L70.7425 55.8608C71.8613 56.0264 72.7681 55.231 72.7681 54.0962V36.1691C72.7681 35.0299 71.7734 33.9424 70.6393 33.9424H49.8018C48.6706 33.9424 47.9277 35.0301 47.9277 36.1691V50.4023Z" fill="white"/>
<path id="Vector_6" d="M99.2701 24.7718H96.0273V15.6241H99.2969C100.217 15.6241 101.009 15.8072 101.673 16.1735C102.337 16.5368 102.848 17.0593 103.205 17.7413C103.566 18.4232 103.746 19.2392 103.746 20.1891C103.746 21.142 103.566 21.9609 103.205 22.6457C102.848 23.3306 102.334 23.8562 101.664 24.2225C100.997 24.5887 100.199 24.7718 99.2701 24.7718ZM97.9614 23.1147H99.1897C99.7615 23.1147 100.242 23.0135 100.633 22.811C101.026 22.6055 101.32 22.2884 101.517 21.8596C101.716 21.4279 101.816 20.8709 101.816 20.1891C101.816 19.5131 101.716 18.9608 101.517 18.5319C101.32 18.1031 101.027 17.7874 100.637 17.585C100.247 17.3825 99.766 17.2813 99.1942 17.2813H97.9614V23.1147ZM108.243 24.9058C107.549 24.9058 106.949 24.7585 106.443 24.4636C105.939 24.1659 105.551 23.752 105.277 23.2219C105.003 22.6889 104.866 22.071 104.866 21.3683C104.866 20.6595 105.003 20.0401 105.277 19.5101C105.551 18.9771 105.939 18.5632 106.443 18.2683C106.949 17.9706 107.549 17.8217 108.243 17.8217C108.936 17.8217 109.535 17.9706 110.038 18.2683C110.544 18.5632 110.934 18.9771 111.208 19.5101C111.482 20.0401 111.619 20.6595 111.619 21.3683C111.619 22.071 111.482 22.6889 111.208 23.2219C110.934 23.752 110.544 24.1659 110.038 24.4636C109.535 24.7585 108.936 24.9058 108.243 24.9058ZM108.251 23.4318C108.567 23.4318 108.831 23.3425 109.042 23.1639C109.253 22.9822 109.413 22.7351 109.52 22.4224C109.63 22.1097 109.685 21.7539 109.685 21.3548C109.685 20.9558 109.63 20.6 109.52 20.2873C109.413 19.9746 109.253 19.7275 109.042 19.5459C108.831 19.3642 108.567 19.2733 108.251 19.2733C107.933 19.2733 107.665 19.3642 107.448 19.5459C107.233 19.7275 107.071 19.9746 106.961 20.2873C106.853 20.6 106.8 20.9558 106.8 21.3548C106.8 21.7539 106.853 22.1097 106.961 22.4224C107.071 22.7351 107.233 22.9822 107.448 23.1639C107.665 23.3425 107.933 23.4318 108.251 23.4318ZM114.038 24.7718L112.171 17.911H114.096L115.159 22.5207H115.222L116.33 17.911H118.219L119.345 22.4938H119.402L120.448 17.911H122.368L120.506 24.7718H118.492L117.312 20.457H117.228L116.048 24.7718H114.038ZM125.286 20.8055V24.7718H123.384V17.911H125.197V19.1215H125.278C125.43 18.7225 125.684 18.4068 126.041 18.1746C126.399 17.9393 126.831 17.8217 127.341 17.8217C127.817 17.8217 128.233 17.926 128.587 18.1344C128.942 18.3429 129.216 18.6406 129.413 19.0277C129.61 19.4118 129.709 19.8704 129.709 20.4034V24.7718H127.805V20.7429C127.809 20.323 127.701 19.9955 127.483 19.7602C127.266 19.5221 126.967 19.4029 126.586 19.4029C126.33 19.4029 126.103 19.458 125.907 19.5682C125.714 19.6784 125.562 19.8391 125.451 20.0506C125.344 20.259 125.289 20.5106 125.286 20.8055ZM133.11 15.6241V24.7718H131.208V15.6241H133.11ZM137.735 24.9058C137.041 24.9058 136.441 24.7585 135.935 24.4636C135.431 24.1659 135.042 23.752 134.769 23.2219C134.495 22.6889 134.358 22.071 134.358 21.3683C134.358 20.6595 134.495 20.0401 134.769 19.5101C135.042 18.9771 135.431 18.5632 135.935 18.2683C136.441 17.9706 137.041 17.8217 137.735 17.8217C138.429 17.8217 139.027 17.9706 139.531 18.2683C140.037 18.5632 140.427 18.9771 140.7 19.5101C140.975 20.0401 141.112 20.6595 141.112 21.3683C141.112 22.071 140.975 22.6889 140.7 23.2219C140.427 23.752 140.037 24.1659 139.531 24.4636C139.027 24.7585 138.429 24.9058 137.735 24.9058ZM137.744 23.4318C138.06 23.4318 138.323 23.3425 138.535 23.1639C138.745 22.9822 138.905 22.7351 139.012 22.4224C139.123 22.1097 139.178 21.7539 139.178 21.3548C139.178 20.9558 139.123 20.6 139.012 20.2873C138.905 19.9746 138.745 19.7275 138.535 19.5459C138.323 19.3642 138.06 19.2733 137.744 19.2733C137.425 19.2733 137.157 19.3642 136.94 19.5459C136.725 19.7275 136.563 19.9746 136.453 20.2873C136.345 20.6 136.292 20.9558 136.292 21.3548C136.292 21.7539 136.345 22.1097 136.453 22.4224C136.563 22.7351 136.725 22.9822 136.94 23.1639C137.157 23.3425 137.425 23.4318 137.744 23.4318ZM144.306 24.9014C143.867 24.9014 143.478 24.8254 143.135 24.6736C142.792 24.5187 142.522 24.2909 142.322 23.9902C142.125 23.6865 142.027 23.3082 142.027 22.8557C142.027 22.4745 142.098 22.1544 142.237 21.8953C142.377 21.6362 142.568 21.4279 142.809 21.27C143.05 21.1122 143.325 20.993 143.631 20.9127C143.941 20.8323 144.265 20.7757 144.605 20.7429C145.004 20.7012 145.326 20.6625 145.569 20.6268C145.813 20.5881 145.99 20.5315 146.101 20.457C146.211 20.3826 146.266 20.2724 146.266 20.1265V20.0997C146.266 19.8168 146.177 19.598 145.998 19.4431C145.822 19.2883 145.572 19.2109 145.247 19.2109C144.905 19.2109 144.633 19.2868 144.43 19.4387C144.227 19.5875 144.094 19.7752 144.028 20.0014L142.269 19.8586C142.358 19.4416 142.533 19.0813 142.796 18.7776C143.058 18.4709 143.396 18.2356 143.81 18.0718C144.226 17.9051 144.709 17.8217 145.257 17.8217C145.637 17.8217 146.003 17.8664 146.351 17.9557C146.702 18.045 147.014 18.1835 147.284 18.3712C147.559 18.5587 147.774 18.7999 147.933 19.0947C148.09 19.3865 148.168 19.7364 148.168 20.1443V24.7718H146.364V23.8204H146.311C146.201 24.0348 146.054 24.224 145.868 24.3877C145.684 24.5485 145.463 24.6751 145.203 24.7673C144.944 24.8567 144.645 24.9014 144.306 24.9014ZM144.851 23.5881C145.13 23.5881 145.377 23.533 145.591 23.4229C145.806 23.3097 145.974 23.1579 146.096 22.9674C146.218 22.7767 146.279 22.5608 146.279 22.3197V21.5916C146.22 21.6303 146.138 21.666 146.034 21.6988C145.933 21.7286 145.818 21.7569 145.69 21.7837C145.561 21.8075 145.434 21.8298 145.306 21.8506C145.177 21.8685 145.061 21.8849 144.958 21.8998C144.735 21.9326 144.539 21.9847 144.372 22.0561C144.206 22.1276 144.076 22.2243 143.984 22.3465C143.892 22.4655 143.846 22.6144 143.846 22.7931C143.846 23.0522 143.939 23.2501 144.126 23.3872C144.317 23.5212 144.559 23.5881 144.851 23.5881ZM152.173 24.8835C151.652 24.8835 151.18 24.7495 150.757 24.4816C150.337 24.2105 150.004 23.813 149.757 23.2889C149.513 22.7619 149.391 22.1157 149.391 21.3503C149.391 20.5642 149.517 19.9107 149.77 19.3895C150.023 18.8654 150.36 18.4738 150.78 18.2148C151.202 17.9528 151.666 17.8217 152.169 17.8217C152.553 17.8217 152.873 17.8872 153.13 18.0182C153.388 18.1463 153.596 18.3071 153.754 18.5006C153.915 18.6912 154.037 18.8789 154.121 19.0635H154.178V15.6241H156.077V24.7718H154.201V23.673H154.121C154.031 23.8637 153.905 24.0527 153.741 24.2403C153.58 24.425 153.37 24.5783 153.111 24.7004C152.855 24.8224 152.543 24.8835 152.173 24.8835ZM152.777 23.3693C153.084 23.3693 153.342 23.2859 153.554 23.1192C153.768 22.9494 153.932 22.7127 154.045 22.409C154.161 22.1052 154.219 21.7494 154.219 21.3415C154.219 20.9335 154.162 20.5792 154.05 20.2784C153.936 19.9776 153.772 19.7454 153.559 19.5815C153.343 19.4178 153.084 19.3359 152.777 19.3359C152.464 19.3359 152.2 19.4208 151.985 19.5905C151.771 19.7602 151.609 19.9955 151.499 20.2963C151.388 20.597 151.333 20.9454 151.333 21.3415C151.333 21.7404 151.388 22.0934 151.499 22.4001C151.612 22.7038 151.775 22.9419 151.985 23.1147C152.2 23.2844 152.464 23.3693 152.777 23.3693ZM164.242 17.911V19.3404H160.008V17.911H164.242ZM160.977 24.7718V17.4153C160.977 16.918 161.074 16.5055 161.267 16.178C161.464 15.8505 161.732 15.6047 162.072 15.441C162.411 15.2772 162.796 15.1953 163.229 15.1953C163.52 15.1953 163.787 15.2176 164.028 15.2624C164.272 15.307 164.454 15.3472 164.573 15.3829L164.233 16.8122C164.159 16.7884 164.066 16.7661 163.957 16.7453C163.849 16.7244 163.739 16.714 163.626 16.714C163.346 16.714 163.151 16.7794 163.04 16.9105C162.931 17.0385 162.876 17.2187 162.876 17.4509V24.7718H160.977ZM168.259 24.9058C167.566 24.9058 166.965 24.7585 166.459 24.4636C165.955 24.1659 165.567 23.752 165.293 23.2219C165.019 22.6889 164.883 22.071 164.883 21.3683C164.883 20.6595 165.019 20.0401 165.293 19.5101C165.567 18.9771 165.955 18.5632 166.459 18.2683C166.965 17.9706 167.566 17.8217 168.259 17.8217C168.952 17.8217 169.552 17.9706 170.054 18.2683C170.561 18.5632 170.951 18.9771 171.225 19.5101C171.499 20.0401 171.635 20.6595 171.635 21.3683C171.635 22.071 171.499 22.6889 171.225 23.2219C170.951 23.752 170.561 24.1659 170.054 24.4636C169.552 24.7585 168.952 24.9058 168.259 24.9058ZM168.268 23.4318C168.583 23.4318 168.847 23.3425 169.058 23.1639C169.27 22.9822 169.43 22.7351 169.537 22.4224C169.647 22.1097 169.701 21.7539 169.701 21.3548C169.701 20.9558 169.647 20.6 169.537 20.2873C169.43 19.9746 169.27 19.7275 169.058 19.5459C168.847 19.3642 168.583 19.2733 168.268 19.2733C167.95 19.2733 167.682 19.3642 167.464 19.5459C167.249 19.7275 167.087 19.9746 166.977 20.2873C166.87 20.6 166.816 20.9558 166.816 21.3548C166.816 21.7539 166.87 22.1097 166.977 22.4224C167.087 22.7351 167.249 22.9822 167.464 23.1639C167.682 23.3425 167.95 23.4318 168.268 23.4318ZM172.873 24.7718V17.911H174.717V19.1081H174.789C174.914 18.6823 175.124 18.3607 175.419 18.1433C175.713 17.923 176.054 17.8128 176.438 17.8128C176.532 17.8128 176.636 17.8187 176.746 17.8307C176.855 17.8426 176.953 17.8589 177.036 17.8798V19.5682C176.946 19.5414 176.823 19.5176 176.665 19.4967C176.507 19.4758 176.363 19.4655 176.232 19.4655C175.952 19.4655 175.702 19.5264 175.481 19.6486C175.264 19.7677 175.091 19.9345 174.963 20.1488C174.838 20.3633 174.776 20.6104 174.776 20.8903V24.7718H172.873Z" fill="white"/>
<path id="Vector_7" d="M99.7187 50.3508L95.6055 35.9758H98.9255L101.305 45.9639H101.424L104.049 35.9758H106.892L109.51 45.985H109.637L112.016 35.9758H115.336L111.223 50.3508H108.261L105.523 40.9523H105.411L102.681 50.3508H99.7187ZM120.002 35.9758V50.3508H116.963V35.9758H120.002ZM134.526 35.9758V50.3508H131.901L125.647 41.3032H125.542V50.3508H122.503V35.9758H125.17L131.375 45.0163H131.5V35.9758H134.526ZM142.133 50.3508H137.038V35.9758H142.175C143.621 35.9758 144.866 36.2636 145.909 36.8391C146.953 37.41 147.756 38.2312 148.317 39.3028C148.883 40.3745 149.166 41.6566 149.166 43.1493C149.166 44.6467 148.883 45.9334 148.317 47.0097C147.756 48.086 146.948 48.912 145.895 49.4874C144.847 50.063 143.593 50.3508 142.133 50.3508ZM140.076 47.7468H142.007C142.905 47.7468 143.661 47.5876 144.273 47.2694C144.891 46.9466 145.354 46.4482 145.664 45.7744C145.977 45.0959 146.134 44.2209 146.134 43.1493C146.134 42.087 145.977 41.219 145.664 40.5452C145.354 39.8713 144.893 39.3753 144.28 39.0571C143.667 38.7389 142.912 38.5799 142.014 38.5799H140.076V47.7468ZM164.627 43.1633C164.627 44.7309 164.331 46.0646 163.736 47.1642C163.146 48.2638 162.341 49.1038 161.321 49.6839C160.306 50.2595 159.164 50.5474 157.896 50.5474C156.619 50.5474 155.472 50.2572 154.457 49.6769C153.441 49.0968 152.639 48.2568 152.049 47.1572C151.46 46.0575 151.164 44.7262 151.164 43.1633C151.164 41.5958 151.46 40.2621 152.049 39.1625C152.639 38.0628 153.441 37.2252 154.457 36.6496C155.472 36.0694 156.619 35.7793 157.896 35.7793C159.164 35.7793 160.306 36.0694 161.321 36.6496C162.341 37.2252 163.146 38.0628 163.736 39.1625C164.331 40.2621 164.627 41.5958 164.627 43.1633ZM161.546 43.1633C161.546 42.1479 161.394 41.2916 161.09 40.5943C160.79 39.8971 160.367 39.3683 159.819 39.008C159.272 38.6477 158.631 38.4675 157.896 38.4675C157.162 38.4675 156.52 38.6477 155.972 39.008C155.425 39.3683 155 39.8971 154.695 40.5943C154.396 41.2916 154.246 42.1479 154.246 43.1633C154.246 44.1788 154.396 45.0351 154.695 45.7323C155 46.4294 155.425 46.9582 155.972 47.3186C156.52 47.6789 157.162 47.859 157.896 47.859C158.631 47.859 159.272 47.6789 159.819 47.3186C160.367 46.9582 160.79 46.4294 161.09 45.7323C161.394 45.0351 161.546 44.1788 161.546 43.1633ZM169.573 50.3508L165.461 35.9758H168.781L171.16 45.9639H171.28L173.904 35.9758H176.747L179.366 45.985H179.492L181.872 35.9758H185.192L181.078 50.3508H178.116L175.379 40.9523H175.266L172.536 50.3508H169.573ZM194.481 40.1101C194.425 39.5438 194.183 39.1039 193.758 38.7905C193.332 38.477 192.754 38.3202 192.024 38.3202C191.528 38.3202 191.11 38.3904 190.768 38.5308C190.426 38.6665 190.164 38.856 189.981 39.0992C189.804 39.3426 189.715 39.6187 189.715 39.9276C189.705 40.1849 189.759 40.4095 189.877 40.6014C189.999 40.7932 190.164 40.9594 190.375 41.0997C190.585 41.2354 190.829 41.3547 191.105 41.4576C191.381 41.556 191.675 41.6402 191.989 41.7104L193.281 42.0192C193.907 42.1596 194.484 42.3467 195.007 42.5807C195.531 42.8147 195.986 43.1025 196.37 43.444C196.753 43.7857 197.05 44.1881 197.261 44.6513C197.476 45.1146 197.586 45.6457 197.591 46.2446C197.586 47.1244 197.361 47.8871 196.917 48.5329C196.477 49.1739 195.841 49.6723 195.007 50.0279C194.179 50.3789 193.181 50.5544 192.01 50.5544C190.85 50.5544 189.839 50.3766 188.979 50.0209C188.122 49.6653 187.453 49.1388 186.971 48.4416C186.493 47.7398 186.243 46.8717 186.22 45.8375H189.16C189.194 46.3195 189.332 46.722 189.574 47.0448C189.823 47.363 190.153 47.6041 190.564 47.7678C190.981 47.9269 191.451 48.0064 191.975 48.0064C192.49 48.0064 192.937 47.9316 193.316 47.7818C193.699 47.6321 193.997 47.4239 194.208 47.1572C194.418 46.8904 194.523 46.5839 194.523 46.2376C194.523 45.9148 194.427 45.6434 194.235 45.4234C194.048 45.2035 193.772 45.0163 193.407 44.8619C193.047 44.7076 192.605 44.5671 192.08 44.4408L190.515 44.0477C189.303 43.7529 188.346 43.292 187.645 42.6649C186.943 42.0379 186.593 41.1933 186.598 40.1311C186.593 39.2607 186.826 38.5003 187.294 37.8499C187.766 37.1994 188.414 36.6917 189.237 36.3268C190.062 35.9618 190.997 35.7793 192.046 35.7793C193.113 35.7793 194.043 35.9618 194.839 36.3268C195.639 36.6917 196.262 37.1994 196.707 37.8499C197.15 38.5003 197.379 39.2537 197.394 40.1101H194.481Z" fill="white"/>
</g>
<defs>
<clipPath id="clip0_650_125">
<rect width="230" height="66.7" fill="white"/>
</clipPath>
</defs>
</svg>
